<svg viewBox="0 0 800 500" xmlns="http://www.w3.org/2000/svg">
  <defs>
    <filter id="shadow" x="-50%" y="-50%" width="200%" height="200%">
      <feDropShadow dx="2" dy="2" stdDeviation="3" flood-color="#666" flood-opacity="0.3"/>
    </filter>
    <marker id="arrowhead" markerWidth="10" markerHeight="7" refX="9" refY="3.5" orient="auto">
      <polygon points="0 0, 10 3.5, 0 7" fill="#666"/>
    </marker>
  </defs>
  
  <!-- Background -->
  <rect width="800" height="500" fill="#f8f9fa"/>
  
  <!-- Title -->
  <text x="400" y="30" text-anchor="middle" font-size="24" font-weight="bold" fill="#1976d2">
    Back-Pressure Handling Mechanisms
  </text>
  
  <!-- Message Queue -->
  <g transform="translate(50, 100)">
    <rect width="120" height="300" rx="10" fill="#e3f2fd" stroke="#1976d2" stroke-width="2" filter="url(#shadow)"/>
    <text x="60" y="25" text-anchor="middle" font-size="14" font-weight="bold" fill="#1976d2">Message Queue</text>
    
    <!-- Queue items -->
    <rect x="20" y="50" width="80" height="20" rx="3" fill="#1976d2" opacity="0.8"/>
    <rect x="20" y="80" width="80" height="20" rx="3" fill="#1976d2" opacity="0.7"/>
    <rect x="20" y="110" width="80" height="20" rx="3" fill="#1976d2" opacity="0.6"/>
    <rect x="20" y="140" width="80" height="20" rx="3" fill="#f44336" opacity="0.8"/>
    <rect x="20" y="170" width="80" height="20" rx="3" fill="#f44336" opacity="0.7"/>
    
    <text x="60" y="280" text-anchor="middle" font-size="12" fill="#f44336">Queue Full!</text>
  </g>
  
  <!-- Load Monitor -->
  <g transform="translate(250, 120)">
    <circle cx="60" cy="60" r="50" fill="#fff3e0" stroke="#ff9800" stroke-width="3" filter="url(#shadow)"/>
    <text x="60" y="45" text-anchor="middle" font-size="12" font-weight="bold" fill="#ff9800">Load</text>
    <text x="60" y="60" text-anchor="middle" font-size="12" font-weight="bold" fill="#ff9800">Monitor</text>
    <text x="60" y="85" text-anchor="middle" font-size="16" font-weight="bold" fill="#f44336">95%</text>
  </g>
  
  <!-- Circuit Breaker -->
  <g transform="translate(400, 100)">
    <rect width="100" height="120" rx="10" fill="#ffebee" stroke="#f44336" stroke-width="2" filter="url(#shadow)"/>
    <text x="50" y="25" text-anchor="middle" font-size="12" font-weight="bold" fill="#f44336">Circuit</text>
    <text x="50" y="40" text-anchor="middle" font-size="12" font-weight="bold" fill="#f44336">Breaker</text>
    
    <!-- Switch in OPEN position -->
    <circle cx="50" cy="70" r="15" fill="#f44336"/>
    <text x="50" y="75" text-anchor="middle" font-size="10" fill="white">OPEN</text>
    
    <text x="50" y="110" text-anchor="middle" font-size="10" fill="#f44336">Rejecting</text>
    <text x="50" y="125" text-anchor="middle" font-size="10" fill="#f44336">Requests</text>
  </g>
  
  <!-- Degraded Service -->
  <g transform="translate(580, 120)">
    <rect width="120" height="80" rx="10" fill="#fff3e0" stroke="#ff9800" stroke-width="2" filter="url(#shadow)"/>
    <text x="60" y="25" text-anchor="middle" font-size="12" font-weight="bold" fill="#ff9800">Degraded</text>
    <text x="60" y="40" text-anchor="middle" font-size="12" font-weight="bold" fill="#ff9800">Service</text>
    <text x="60" y="65" text-anchor="middle" font-size="10" fill="#ff9800">Essential only</text>
  </g>
  
  <!-- Priority Queues -->
  <g transform="translate(200, 280)">
    <text x="200" y="20" text-anchor="middle" font-size="16" font-weight="bold" fill="#1976d2">
      Priority-Based Queue Management
    </text>
    
    <!-- High Priority -->
    <rect x="50" y="40" width="120" height="40" rx="5" fill="#4caf50" filter="url(#shadow)"/>
    <text x="110" y="50" text-anchor="middle" font-size="12" font-weight="bold" fill="white">High Priority</text>
    <text x="110" y="67" text-anchor="middle" font-size="10" fill="white">Critical notifications</text>
    
    <!-- Medium Priority -->
    <rect x="200" y="40" width="120" height="40" rx="5" fill="#ff9800" filter="url(#shadow)"/>
    <text x="260" y="50" text-anchor="middle" font-size="12" font-weight="bold" fill="white">Medium Priority</text>
    <text x="260" y="67" text-anchor="middle" font-size="10" fill="white">Social updates</text>
    
    <!-- Low Priority -->
    <rect x="350" y="40" width="120" height="40" rx="5" fill="#9e9e9e" filter="url(#shadow)"/>
    <text x="410" y="50" text-anchor="middle" font-size="12" font-weight="bold" fill="white">Low Priority</text>
    <text x="410" y="67" text-anchor="middle" font-size="10" fill="white">Analytics events</text>
  </g>
  
  <!-- Flow arrows -->
  <line x1="170" y1="180" x2="250" y2="180" stroke="#666" stroke-width="2" marker-end="url(#arrowhead)"/>
  <line x1="320" y1="180" x2="400" y2="180" stroke="#666" stroke-width="2" marker-end="url(#arrowhead)"/>
  <line x1="500" y1="160" x2="580" y2="160" stroke="#666" stroke-width="2" marker-end="url(#arrowhead)"/>
  
  <!-- Back-pressure indication -->
  <path d="M 380 250 Q 300 230 220 250" stroke="#f44336" stroke-width="3" fill="none" stroke-dasharray="5,5"/>
  <text x="300" y="235" text-anchor="middle" font-size="12" fill="#f44336">Back-pressure signal</text>
</svg>
