<svg viewBox="0 0 800 500" xmlns="http://www.w3.org/2000/svg">
  <defs>
    <filter id="shadow" x="-50%" y="-50%" width="200%" height="200%">
      <feDropShadow dx="2" dy="2" stdDeviation="3" flood-color="#666" flood-opacity="0.3"/>
    </filter>
  </defs>
  
  <!-- Background -->
  <rect width="800" height="500" fill="#f8f9fa"/>
  
  <!-- Title -->
  <text x="400" y="30" text-anchor="middle" font-size="24" font-weight="bold" fill="#1976d2">
    Fan-Out Architecture Overview
  </text>
  
  <!-- Message Producer -->
  <g transform="translate(50, 100)">
    <rect width="120" height="80" rx="10" fill="#e3f2fd" stroke="#1976d2" stroke-width="2" filter="url(#shadow)"/>
    <text x="60" y="35" text-anchor="middle" font-size="14" font-weight="bold" fill="#1976d2">Message</text>
    <text x="60" y="55" text-anchor="middle" font-size="14" font-weight="bold" fill="#1976d2">Producer</text>
  </g>
  
  <!-- Fan-Out Manager -->
  <g transform="translate(350, 80)">
    <rect width="100" height="120" rx="15" fill="#fff3e0" stroke="#ff9800" stroke-width="3" filter="url(#shadow)"/>
    <text x="50" y="30" text-anchor="middle" font-size="12" font-weight="bold" fill="#ff9800">Fan-Out</text>
    <text x="50" y="50" text-anchor="middle" font-size="12" font-weight="bold" fill="#ff9800">Manager</text>
    <circle cx="50" cy="80" r="15" fill="#ff9800" opacity="0.3"/>
    <text x="50" y="85" text-anchor="middle" font-size="10" fill="#ff9800">Logic</text>
  </g>
  
  <!-- Strategy Decision Diamond -->
  <g transform="translate(375, 250)">
    <polygon points="50,0 100,25 50,50 0,25" fill="#f3e5f5" stroke="#9c27b0" stroke-width="2" filter="url(#shadow)"/>
    <text x="50" y="20" text-anchor="middle" font-size="10" fill="#9c27b0">Strategy</text>
    <text x="50" y="35" text-anchor="middle" font-size="10" fill="#9c27b0">Decision</text>
  </g>
  
  <!-- Write Path -->
  <g transform="translate(200, 350)">
    <rect width="140" height="60" rx="8" fill="#e8f5e8" stroke="#4caf50" stroke-width="2" filter="url(#shadow)"/>
    <text x="70" y="25" text-anchor="middle" font-size="12" font-weight="bold" fill="#4caf50">Fan-Out on Write</text>
    <text x="70" y="45" text-anchor="middle" font-size="10" fill="#4caf50">Pre-compute all feeds</text>
  </g>
  
  <!-- Read Path -->
  <g transform="translate(460, 350)">
    <rect width="140" height="60" rx="8" fill="#fff3e0" stroke="#ff9800" stroke-width="2" filter="url(#shadow)"/>
    <text x="70" y="25" text-anchor="middle" font-size="12" font-weight="bold" fill="#ff9800">Fan-Out on Read</text>
    <text x="70" y="45" text-anchor="middle" font-size="10" fill="#ff9800">Compute on demand</text>
  </g>
  
  <!-- Consumers -->
  <g transform="translate(650, 120)">
    <circle cx="30" cy="30" r="25" fill="#e3f2fd" stroke="#1976d2" stroke-width="2" filter="url(#shadow)"/>
    <text x="30" y="25" text-anchor="middle" font-size="10" fill="#1976d2">User</text>
    <text x="30" y="38" text-anchor="middle" font-size="10" fill="#1976d2">Feed</text>
  </g>
  
  <g transform="translate(650, 200)">
    <circle cx="30" cy="30" r="25" fill="#e3f2fd" stroke="#1976d2" stroke-width="2" filter="url(#shadow)"/>
    <text x="30" y="25" text-anchor="middle" font-size="10" fill="#1976d2">Push</text>
    <text x="30" y="38" text-anchor="middle" font-size="10" fill="#1976d2">Notify</text>
  </g>
  
  <g transform="translate(650, 280)">
    <circle cx="30" cy="30" r="25" fill="#e3f2fd" stroke="#1976d2" stroke-width="2" filter="url(#shadow)"/>
    <text x="30" y="25" text-anchor="middle" font-size="10" fill="#1976d2">Email</text>
    <text x="30" y="38" text-anchor="middle" font-size="10" fill="#1976d2">Service</text>
  </g>
  
  <!-- Arrows -->
  <defs>
    <marker id="arrowhead" markerWidth="10" markerHeight="7" refX="9" refY="3.5" orient="auto">
      <polygon points="0 0, 10 3.5, 0 7" fill="#666"/>
    </marker>
  </defs>
  
  <!-- Producer to Manager -->
  <line x1="170" y1="140" x2="350" y2="140" stroke="#666" stroke-width="2" marker-end="url(#arrowhead)"/>
  
  <!-- Manager to Decision -->
  <line x1="400" y1="200" x2="400" y2="250" stroke="#666" stroke-width="2" marker-end="url(#arrowhead)"/>
  
  <!-- Decision to Write -->
  <line x1="375" y1="275" x2="320" y2="350" stroke="#666" stroke-width="2" marker-end="url(#arrowhead)"/>
  <text x="330" y="320" font-size="10" fill="#666">High followers</text>
  
  <!-- Decision to Read -->
  <line x1="425" y1="275" x2="480" y2="350" stroke="#666" stroke-width="2" marker-end="url(#arrowhead)"/>
  <text x="460" y="320" font-size="10" fill="#666">Celebrity users</text>
  
  <!-- To Consumers -->
  <line x1="450" y1="140" x2="650" y2="150" stroke="#666" stroke-width="2" marker-end="url(#arrowhead)"/>
  <line x1="450" y1="150" x2="650" y2="230" stroke="#666" stroke-width="2" marker-end="url(#arrowhead)"/>
  <line x1="450" y1="160" x2="650" y2="310" stroke="#666" stroke-width="2" marker-end="url(#arrowhead)"/>
</svg>
